<?xml version="1.0" encoding="UTF-8" standalone="no"?>
<svg
   viewBox="0 0 40 46.999999"
   version="1.1"
   id="svg12598"
   sodipodi:docname="acrobatics.svg"
   width="40"
   height="47"
   inkscape:version="1.2.1 (9c6d41e, 2022-07-14)"
   xmlns:inkscape="http://www.inkscape.org/namespaces/inkscape"
   xmlns:sodipodi="http://sodipodi.sourceforge.net/DTD/sodipodi-0.dtd"
   xmlns="http://www.w3.org/2000/svg"
   xmlns:svg="http://www.w3.org/2000/svg">
  <sodipodi:namedview
     id="namedview12600"
     pagecolor="#505050"
     bordercolor="#eeeeee"
     borderopacity="1"
     inkscape:showpageshadow="0"
     inkscape:pageopacity="0"
     inkscape:pagecheckerboard="0"
     inkscape:deskcolor="#505050"
     showgrid="false"
     inkscape:zoom="3.6867162"
     inkscape:cx="24.276346"
     inkscape:cy="14.240315"
     inkscape:window-width="1680"
     inkscape:window-height="997"
     inkscape:window-x="0"
     inkscape:window-y="25"
     inkscape:window-maximized="1"
     inkscape:current-layer="svg12598" />
  <defs
     id="defs12582">
    <style
       id="style12580">
      .cls-1 {
        fill: #ea1f23;
      }

      .cls-2 {
        fill: #ea1b24;
      }

      .cls-3 {
        fill: #ea1d24;
      }
    </style>
  </defs>
  <g
     id="Plane"
     transform="matrix(0.06968603,0,0,0.06968603,-15.679356,2.4106049e-4)">
    <path
       class="cls-3"
       d="m 281,445.26 c 3.8,1.93 19.83,-17.51 26,-25 3.84,-4.66 7.67,-9.61 12,-9 2.29,0.32 4.19,2.21 8,6 1.13,1.12 2.65,2.74 6,7 2.48,3.15 3.71,4.73 6,8 3.5,5.01 31.23,39.4 58,65 52.24,49.97 125.48,90.05 164,106 8.95,3.7 27.92,11.03 58,24 10.29,4.44 20.69,8.62 31,13 21.81,9.26 30.02,12.99 43,15 5.72,0.89 13.77,2.14 24,1 15.94,-1.77 19.91,-7.41 52,-24 21.5,-11.12 29.79,-13.79 30,-20 0.07,-2.22 -0.89,-4.56 -18,-18 -21.25,-16.69 -26.51,-18.37 -31,-19 -7.95,-1.11 -13.85,1.05 -20,3 -25.45,8.08 -48.71,10.67 -54,11 -21.24,1.32 -25.18,-16.77 -96,-83 0,0 -21.57,-20.17 -64,-55 0,0 -5.34,-4.39 -17,-13 -31.74,-23.45 -38.57,-24.06 -42,-24 -14.47,0.24 -14.08,13.04 -29,15 -19.97,2.62 -24.19,-19.83 -61,-32 -10.05,-3.32 -19.61,-4.92 -21,-11 -0.62,-2.71 0.55,-5.6 11,-18 13.39,-15.88 21,-22.43 19,-27 -0.7,-1.61 -2.49,-2.71 -4,-3 -3.66,-0.7 -7.22,3.06 -9,5 -12.97,14.14 -22.2,30.36 -33,35 -3.51,1.5 -6,2 -6,2 -7.27,1.44 -11.15,-1.17 -13,1 -0.9,1.05 -0.21,1.91 0,9 0.07,2.48 0.13,4.48 0,6 -0.35,4.06 -2.3,7.37 -6,12 -4.14,5.18 -7.85,8.72 -18,19 -2.2,2.23 -4.7,4.82 -6,9 -0.89,2.88 -1.72,8.12 0,9 z"
       id="path12584" />
  </g>
  <g
     id="Path"
     transform="matrix(0.06968603,0,0,0.06968603,-15.679356,2.4106049e-4)">
    <g
       id="g12595">
      <path
         class="cls-1"
         d="m 225,672.26 c 0,0 8.83,0 9,0 114.89,-0.03 204,-31 204,-31 29.79,-10.35 74,-29 74,-29 0,0 -24,-20 -24,-20 0,0 -25.7,14.69 -28,16 -34.37,19.55 -87.35,34.08 -98,37 -29.37,8.05 -55.15,15.12 -89,17 0,0 -4.89,0.27 -48,2 0,0 0,8 0,8 z"
         id="path12587" />
      <path
         class="cls-1"
         d="m 632,515.26 c 0,0 27.53,-24.18 47,-46 17.02,-19.07 27.22,-35.61 36,-50 33.69,-55.2 52,-114 52,-114 -5.33,0 -10.67,0 -16,0 -6,0 -12,0 -18,0 -3.21,9.7 -6.85,19.72 -11,30 -11.58,28.68 -24.81,53.66 -38,75 q 0,0 0,0 c 0,0 -27.04,41.73 -70,85 0,0 18,20 18,20 z"
         id="path12589" />
      <path
         class="cls-2"
         d="m 720,91.26 c -0.63,-0.53 -32.48,-31 -62,-50 -27.67,-17.81 -52.56,-25.06 -70,-30 -53.35,-15.11 -99.37,-11.94 -126,-8 -20.2,2.99 -46.9,7.17 -78,23 -37.39,19.03 -61.16,44.72 -74,61 18.67,0.33 37.33,0.67 56,1 17.04,-12.96 47.07,-32.37 89,-43 19.76,-5.01 65.97,-14.11 121,0 50.94,13.06 84.18,39.51 91.99,45.99 0,0 0.01,0.01 0.01,0.01 34,0 52,0 52,0 z"
         id="path12591" />
      <path
         class="cls-3"
         d="m 272,303.26 c 0,0 39,1 39,1 0,0 1.59,9.48 5,18 0,0 1.99,4.97 10,18 0,0 -28,18 -28,18 0,0 -14.73,-13.7 -21,-32 -3.36,-9.81 -5,-22.99 -5,-23 z"
         id="path12593" />
    </g>
  </g>
</svg>
