<?xml version="1.0" encoding="UTF-8" standalone="no"?>
<svg viewBox="0 0 31.75 31.75" version="1.1" id="svg5"
    xmlns:xlink="http://www.w3.org/1999/xlink"
    xmlns="http://www.w3.org/2000/svg">
    <defs id="defs2"/>
    <g id="layer2" style="display:none"></g>
    <g id="magnetic-variation" style="display:inline">
        <circle style="display:inline;opacity:1;fill:none;stroke:#002e94;stroke-width:1.6166;stroke-miterlimit:4;stroke-dasharray:none;stroke-opacity:1" id="circle5506" cx="22.60351" cy="-1.0398916" r="11" transform="rotate(47.634078)"/>
        <g id="g4992">
            <path id="rect3506-5-6" style="font-variation-settings:normal;opacity:1;vector-effect:none;fill:#002e94;fill-opacity:1;stroke:none;stroke-width:1.72141;stroke-linecap:butt;stroke-linejoin:miter;stroke-miterlimit:4;stroke-dasharray:none;stroke-dashoffset:0;stroke-opacity:1;-inkscape-stroke:none;stop-color:#000000" d="m 12.876389,0 v 5.3898519 a 12.472441,11 0 0 1 3.142578,-0.3892958 12.472441,11 0 0 1 2.857422,0.2980008 V 0 Z m 0,26.609918 V 31.75 h 6 v -5.052233 a 12.472441,11 0 0 1 -2.857422,0.301446 12.472441,11 0 0 1 -3.142578,-0.389295 z"/>
            <path id="rect3506-2" style="opacity:1;fill:#002e94;fill-opacity:1;stroke:none;stroke-width:1.72141;stroke-miterlimit:4;stroke-dasharray:none;stroke-opacity:1" d="m 0,12.876389 v 6 h 5.3967421 a 11,12.472441 0 0 1 -0.396186,-3.164063 11,12.472441 0 0 1 0.2945556,-2.835937 z m 26.704658,0 a 11,12.472441 0 0 1 0.294555,2.835937 11,12.472441 0 0 1 -0.396186,3.164063 H 31.75 v -6 z"/>
        </g>
    </g>
    <g id="runway" style="display:inline">
        <path id="path5520" style="display:inline;opacity:1;fill:#002e94;fill-opacity:1;stroke:none;stroke-width:1.833;stroke-miterlimit:4;stroke-dasharray:none;stroke-opacity:1" d="M 18.142578,5.6699219 A 12.472441,12.472441 0 0 0 5.6699219,18.142578 12.472441,12.472441 0 0 0 18.142578,30.613281 12.472441,12.472441 0 0 0 30.613281,18.142578 12.472441,12.472441 0 0 0 18.142578,5.6699219 Z M 14.5,8 h 7 v 20 h -7 z" transform="scale(0.88194444)"/>
    </g>
</svg>