<?xml version="1.0" encoding="UTF-8" standalone="no"?>
<!-- Created with Inkscape (http://www.inkscape.org/) -->

<svg
   width="51"
   height="51"
   viewBox="0 0 13.493749 13.49375"
   version="1.1"
   id="svg33389"
   sodipodi:docname="metar-taf.svg"
   inkscape:version="1.2.1 (9c6d41e, 2022-07-14)"
   xmlns:inkscape="http://www.inkscape.org/namespaces/inkscape"
   xmlns:sodipodi="http://sodipodi.sourceforge.net/DTD/sodipodi-0.dtd"
   xmlns="http://www.w3.org/2000/svg"
   xmlns:svg="http://www.w3.org/2000/svg">
  <sodipodi:namedview
     id="namedview33391"
     pagecolor="#505050"
     bordercolor="#eeeeee"
     borderopacity="1"
     inkscape:showpageshadow="0"
     inkscape:pageopacity="0"
     inkscape:pagecheckerboard="0"
     inkscape:deskcolor="#505050"
     inkscape:document-units="mm"
     showgrid="false"
     inkscape:zoom="4.7401665"
     inkscape:cx="-16.244155"
     inkscape:cy="27.530679"
     inkscape:window-width="1680"
     inkscape:window-height="997"
     inkscape:window-x="0"
     inkscape:window-y="25"
     inkscape:window-maximized="1"
     inkscape:current-layer="g1109" />
  <defs
     id="defs33386" />
  <g
     id="g1109"
     transform="translate(0.05209941,0.01736647)">
    <path
       id="metar"
       style="fill:#008c13;fill-opacity:1;stroke:#000000;stroke-width:0.529167;stroke-dasharray:none;stroke-opacity:1;paint-order:markers fill stroke"
       d="m 11.101647,2.2603352 a 6.3499999,6.3499999 0 0 0 -4.4870635,-1.86345995 6.3499999,6.3499999 0 0 0 -6.35,6.34999995 6.3499999,6.3499999 0 0 0 6.35,6.3499998 6.3499999,6.3499999 0 0 0 4.4870635,-1.86293 L 9.6045815,9.7373952 a 4.2333331,4.2333331 0 0 1 -2.989998,1.2428198 4.2333331,4.2333331 0 0 1 -4.233334,-4.2333398 4.2333331,4.2333331 0 0 1 4.233334,-4.23333 4.2333331,4.2333331 0 0 1 2.989998,1.24334 z" />
    <path
       id="taf"
       style="fill:#008c13;fill-opacity:1;stroke:#000000;stroke-width:0.529167;stroke-linecap:butt;stroke-dasharray:none;stroke-opacity:1;paint-order:normal"
       d="m 11.134063,1.8856752 -1.8675855,1.86758 a 4.2333331,4.2333331 0 0 1 1.2397165,2.99362 4.2333331,4.2333331 0 0 1 -1.2397165,2.99361 l 1.8675855,1.8675898 a 6.8791666,6.8791666 0 0 0 2.017965,-4.8611998 6.8791666,6.8791666 0 0 0 -2.017965,-4.8612 z" />
  </g>
</svg>
